<svg width="33" height="33" viewBox="0 0 33 33" fill="none" xmlns="http://www.w3.org/2000/svg">
  <path opacity="0.1" fill-rule="evenodd" clip-rule="evenodd"
    d="M0 16.5C0 7.3873 7.3873 0 16.5 0C25.6127 0 33 7.3873 33 16.5C33 25.6127 25.6127 33 16.5 33C7.3873 33 0 25.6127 0 16.5Z"
    fill="#FDFDFD" />
  <path fill-rule="evenodd" clip-rule="evenodd"
    d="M22.611 22.4999H10.389C9.6102 22.4999 9 21.8897 9 21.111V11.889C9 11.1103 9.6102 10.5 10.389 10.5H22.611C23.3898 10.5 24 11.1103 24 11.889V21.111C24 21.8897 23.3898 22.4999 22.611 22.4999ZM11.811 12.808L16.5 15.9705L21.189 12.808V20.665H11.811V12.808Z"
    fill="#FDFDFD" />
</svg>